<svg width="38" height="39" viewBox="0 0 38 39" fill="none" xmlns="http://www.w3.org/2000/svg">
<g clip-path="url(#clip0_509_2466)">
<path d="M19 0.609375C8.83203 0.609375 0.59375 9.06445 0.59375 19.5C0.59375 29.9355 8.83203 38.3906 19 38.3906C29.168 38.3906 37.4062 29.9355 37.4062 19.5C37.4062 9.06445 29.168 0.609375 19 0.609375ZM29.6875 21.6328C29.6875 22.1355 29.2867 22.5469 28.7969 22.5469H21.9688V29.5547C21.9688 30.0574 21.568 30.4688 21.0781 30.4688H16.9219C16.432 30.4688 16.0312 30.0574 16.0312 29.5547V22.5469H9.20312C8.71328 22.5469 8.3125 22.1355 8.3125 21.6328V17.3672C8.3125 16.8645 8.71328 16.4531 9.20312 16.4531H16.0312V9.44531C16.0312 8.94258 16.432 8.53125 16.9219 8.53125H21.0781C21.568 8.53125 21.9688 8.94258 21.9688 9.44531V16.4531H28.7969C29.2867 16.4531 29.6875 16.8645 29.6875 17.3672V21.6328Z" fill="black" fill-opacity="0.66"/>
</g>
<defs>
<clipPath id="clip0_509_2466">
<rect width="38" height="39" fill="white"/>
</clipPath>
</defs>
</svg>
