<svg width="163" height="163" viewBox="0 0 163 163" fill="none" xmlns="http://www.w3.org/2000/svg">
<path d="M0.125 81.5C0.125 54.0976 0.125 40.3964 5.15962 29.8034C10.2949 18.9986 18.9986 10.2949 29.8034 5.15962C40.3964 0.125 54.0976 0.125 81.5 0.125C108.902 0.125 122.604 0.125 133.197 5.15962C144.001 10.2949 152.705 18.9986 157.84 29.8034C162.875 40.3964 162.875 54.0976 162.875 81.5C162.875 108.902 162.875 122.604 157.84 133.197C152.705 144.001 144.001 152.705 133.197 157.84C122.604 162.875 108.902 162.875 81.5 162.875C54.0976 162.875 40.3964 162.875 29.8034 157.84C18.9986 152.705 10.2949 144.001 5.15962 133.197C0.125 122.604 0.125 108.902 0.125 81.5Z" fill="#7E869E" fill-opacity="0.25"/>
</svg>
