<svg width="32" height="38" viewBox="0 0 32 38" fill="none" xmlns="http://www.w3.org/2000/svg">
<path d="M0 34.4375C0 36.4043 1.53571 38 3.42857 38H28.5714C30.4643 38 32 36.4043 32 34.4375V14.25H0V34.4375ZM22.8571 19.8906C22.8571 19.4008 23.2429 19 23.7143 19H26.5714C27.0429 19 27.4286 19.4008 27.4286 19.8906V22.8594C27.4286 23.3492 27.0429 23.75 26.5714 23.75H23.7143C23.2429 23.75 22.8571 23.3492 22.8571 22.8594V19.8906ZM22.8571 29.3906C22.8571 28.9008 23.2429 28.5 23.7143 28.5H26.5714C27.0429 28.5 27.4286 28.9008 27.4286 29.3906V32.3594C27.4286 32.8492 27.0429 33.25 26.5714 33.25H23.7143C23.2429 33.25 22.8571 32.8492 22.8571 32.3594V29.3906ZM13.7143 19.8906C13.7143 19.4008 14.1 19 14.5714 19H17.4286C17.9 19 18.2857 19.4008 18.2857 19.8906V22.8594C18.2857 23.3492 17.9 23.75 17.4286 23.75H14.5714C14.1 23.75 13.7143 23.3492 13.7143 22.8594V19.8906ZM13.7143 29.3906C13.7143 28.9008 14.1 28.5 14.5714 28.5H17.4286C17.9 28.5 18.2857 28.9008 18.2857 29.3906V32.3594C18.2857 32.8492 17.9 33.25 17.4286 33.25H14.5714C14.1 33.25 13.7143 32.8492 13.7143 32.3594V29.3906ZM4.57143 19.8906C4.57143 19.4008 4.95714 19 5.42857 19H8.28571C8.75714 19 9.14286 19.4008 9.14286 19.8906V22.8594C9.14286 23.3492 8.75714 23.75 8.28571 23.75H5.42857C4.95714 23.75 4.57143 23.3492 4.57143 22.8594V19.8906ZM4.57143 29.3906C4.57143 28.9008 4.95714 28.5 5.42857 28.5H8.28571C8.75714 28.5 9.14286 28.9008 9.14286 29.3906V32.3594C9.14286 32.8492 8.75714 33.25 8.28571 33.25H5.42857C4.95714 33.25 4.57143 32.8492 4.57143 32.3594V29.3906ZM28.5714 4.75H25.1429V1.1875C25.1429 0.534375 24.6286 0 24 0H21.7143C21.0857 0 20.5714 0.534375 20.5714 1.1875V4.75H11.4286V1.1875C11.4286 0.534375 10.9143 0 10.2857 0H8C7.37143 0 6.85714 0.534375 6.85714 1.1875V4.75H3.42857C1.53571 4.75 0 6.3457 0 8.3125V11.875H32V8.3125C32 6.3457 30.4643 4.75 28.5714 4.75Z" fill="black" fill-opacity="0.28"/>
</svg>
