<svg width="42" height="42" viewBox="0 0 42 42" fill="none" xmlns="http://www.w3.org/2000/svg">
<path fill-rule="evenodd" clip-rule="evenodd" d="M27.4927 23.6212C27.8199 22.8116 28 21.9268 28 21C28 17.134 24.866 14 21 14C20.0732 14 19.1884 14.1801 18.3788 14.5073L19.9764 16.1049C20.3068 16.0361 20.6492 16 21 16C23.7614 16 26 18.2386 26 21C26 21.3508 25.9639 21.6932 25.8951 22.0236L27.4927 23.6212ZM17.2837 17.6549C16.4857 18.5409 16 19.7137 16 21C16 23.7614 18.2386 26 21 26C22.2863 26 23.4591 25.5143 24.3451 24.7163L25.7607 26.1319C24.5116 27.2912 22.8386 28 21 28C17.134 28 14 24.866 14 21C14 19.1614 14.7088 17.4884 15.8681 16.2393L17.2837 17.6549Z" fill="#CCD2E3"/>
<path fill-rule="evenodd" clip-rule="evenodd" d="M31.7731 27.9018C34.0585 25.9834 35.7993 23.9164 36.7489 22.6898C36.7728 22.6589 36.7977 22.6272 36.8233 22.5946C37.125 22.2103 37.5278 21.6972 37.5278 21C37.5278 20.3028 37.125 19.7897 36.8233 19.4054C36.7977 19.3728 36.7728 19.3411 36.7489 19.3102C35.6854 17.9365 33.6298 15.5089 30.9281 13.4163C28.2388 11.3332 24.8032 9.5 21 9.5C18.8164 9.5 16.754 10.1043 14.8845 11.0132L16.3924 12.5212C17.861 11.8875 19.4102 11.5 21 11.5C24.1681 11.5 27.1747 13.0388 29.7034 14.9974C32.2196 16.9464 34.1575 19.23 35.1675 20.5346C35.2648 20.6603 35.3388 20.756 35.4004 20.8401C35.4539 20.9133 35.4876 20.9637 35.5094 21C35.4876 21.0363 35.4539 21.0867 35.4004 21.1599C35.3388 21.244 35.2648 21.3397 35.1675 21.4654C34.2462 22.6554 32.5531 24.6598 30.3532 26.4819L31.7731 27.9018ZM13.6519 14.0233C13.1869 14.3315 12.7346 14.6582 12.2966 14.9974C9.78034 16.9464 7.84252 19.23 6.83249 20.5346C6.73517 20.6603 6.66116 20.756 6.5996 20.8401C6.54606 20.9133 6.5124 20.9637 6.49054 21C6.5124 21.0363 6.54606 21.0867 6.5996 21.1599C6.66116 21.244 6.73517 21.3397 6.83249 21.4654C7.84252 22.77 9.78034 25.0536 12.2966 27.0026C14.8252 28.9612 17.8319 30.5 21 30.5C23.4432 30.5 25.7904 29.5848 27.8963 28.2677L29.3441 29.7154C26.9414 31.2881 24.0922 32.5 21 32.5C17.1968 32.5 13.7611 30.6668 11.0719 28.5837C8.37022 26.4911 6.31456 24.0635 5.25105 22.6898C5.2272 22.659 5.20232 22.6273 5.1767 22.5946L5.17666 22.5946C4.87497 22.2103 4.47217 21.6972 4.47217 21C4.47217 20.3028 4.87497 19.7897 5.17666 19.4054C5.20229 19.3728 5.22719 19.3411 5.25105 19.3102C6.31456 17.9365 8.37022 15.5089 11.0719 13.4163C11.4382 13.1325 11.8184 12.8534 12.2115 12.5829L13.6519 14.0233Z" fill="#CCD2E3"/>
<path d="M8.75 3.5L36.75 31.5" stroke="#CCD2E3" stroke-width="2"/>
</svg>
